<svg width="1200" height="630" xmlns="http://www.w3.org/2000/svg">
  <defs>
    <linearGradient id="brand" x1="0" y1="0" x2="1" y2="0">
      <stop offset="0%" stop-color="#06b6d4"/>
      <stop offset="50%" stop-color="#a855f7"/>
      <stop offset="100%" stop-color="#ec4899"/>
    </linearGradient>
  </defs>
  <rect width="1200" height="630" fill="#059669"/>
  <rect width="1200" height="4" y="0" fill="url(#brand)"/>
  <g transform="translate(550, 120) scale(4.17)">
    <path fill="white" d="M23.071 8.409a6.09 6.09 0 00-5.396-3.228H.584A.589.589 0 00.17 6.184L3.894 9.93a1.752 1.752 0 001.242.516h12.049a1.554 1.554 0 11.031 3.108H8.91a.589.589 0 00-.415 1.003l3.725 3.747a1.75 1.75 0 001.242.516h3.757c4.887 0 8.584-5.225 5.852-10.413"/>
  </g>
  <text x="600" y="310" font-family="system-ui, sans-serif" font-size="48" font-weight="bold" fill="white" text-anchor="middle">DoorDash Earnings</text>
  <text x="600" y="370" font-family="system-ui, sans-serif" font-size="48" font-weight="bold" fill="white" text-anchor="middle">Calculator</text>
  <text x="600" y="440" font-family="system-ui, sans-serif" font-size="28" fill="#d1fae5" text-anchor="middle">Calculate your DoorDash delivery earnings</text>
  <text x="600" y="550" font-family="system-ui, sans-serif" font-size="24" fill="#6ee7b7" text-anchor="middle">calcfalcon.com</text>
</svg>