<svg width="1200" height="630" xmlns="http://www.w3.org/2000/svg">
  <defs>
    <linearGradient id="brand" x1="0" y1="0" x2="1" y2="0">
      <stop offset="0%" stop-color="#06b6d4"/>
      <stop offset="50%" stop-color="#a855f7"/>
      <stop offset="100%" stop-color="#ec4899"/>
    </linearGradient>
  </defs>
  <rect width="1200" height="630" fill="#7c3aed"/>
  <rect width="1200" height="4" y="0" fill="url(#brand)"/>
  <g transform="translate(550, 120) scale(4.17)">
    <path fill="white" d="M20 4H4c-1.1 0-2 .9-2 2v2h20V6c0-1.1-.9-2-2-2zm0 6H4v8c0 1.1.9 2 2 2h12c1.1 0 2-.9 2-2v-8zM4 10v8h16v-8H4zm2 2h4v2H6v-2zm0 3h4v2H6v-2zm6-3h4v2h-4v-2z"/>
  </g>
  <text x="600" y="310" font-family="system-ui, sans-serif" font-size="48" font-weight="bold" fill="white" text-anchor="middle">Dropshipping Margin</text>
  <text x="600" y="370" font-family="system-ui, sans-serif" font-size="48" font-weight="bold" fill="white" text-anchor="middle">Calculator</text>
  <text x="600" y="440" font-family="system-ui, sans-serif" font-size="28" fill="#ede9fe" text-anchor="middle">Analyze your true profit per order</text>
  <text x="600" y="550" font-family="system-ui, sans-serif" font-size="24" fill="#c4b5fd" text-anchor="middle">calcfalcon.com</text>
</svg>