<svg xmlns="http://www.w3.org/2000/svg" width="1200" height="630" viewBox="0 0 1200 630">
  <defs>
    <linearGradient id="topBar" x1="0" y1="0" x2="1" y2="0">
      <stop offset="0%" stop-color="#06b6d4"/>
      <stop offset="50%" stop-color="#a855f7"/>
      <stop offset="100%" stop-color="#ec4899"/>
    </linearGradient>
  </defs>
  <rect width="1200" height="630" fill="#c026d3"/>
  <rect y="0" width="1200" height="4" fill="url(#topBar)"/>
  <g transform="translate(550, 120) scale(4.17)">
    <path fill="white" d="M12 0A12 12 0 0 0 0 12a12 12 0 0 0 12 12 12 12 0 0 0 12-12A12 12 0 0 0 12 0Zm-.007 5.12c4.48 0 5.995 3.025 6.064 4.744h-3.239c-.069-.962-.897-2.406-2.896-2.406-2.136 0-3.514 1.857-3.514 4.126 0 2.27 1.378 4.125 3.514 4.125 1.93 0 2.758-1.512 3.103-3.025h-3.103v-1.238h6.509v6.327h-2.855v-3.989c-.207 1.444-1.102 4.264-4.617 4.264-3.516 0-5.584-2.82-5.584-6.326 0-3.645 2.276-6.602 6.618-6.602z"/>
  </g>
  <text x="600" y="310" font-family="system-ui, sans-serif" font-size="48" font-weight="bold" fill="white" text-anchor="middle">Gumroad Revenue</text>
  <text x="600" y="370" font-family="system-ui, sans-serif" font-size="48" font-weight="bold" fill="white" text-anchor="middle">Calculator</text>
  <text x="600" y="440" font-family="system-ui, sans-serif" font-size="28" fill="#fae8ff" text-anchor="middle">Calculate your Gumroad sales revenue after fees</text>
  <text x="600" y="550" font-family="system-ui, sans-serif" font-size="24" fill="#f0abfc" text-anchor="middle">calcfalcon.com</text>
</svg>