<svg xmlns="http://www.w3.org/2000/svg" width="1200" height="630" viewBox="0 0 1200 630">
  <defs>
    <linearGradient id="topBar" x1="0" y1="0" x2="1" y2="0">
      <stop offset="0%" stop-color="#06b6d4"/>
      <stop offset="50%" stop-color="#a855f7"/>
      <stop offset="100%" stop-color="#ec4899"/>
    </linearGradient>
  </defs>
  <rect width="1200" height="630" fill="#c026d3"/>
  <rect y="0" width="1200" height="4" fill="url(#topBar)"/>
  <g transform="translate(550, 120) scale(4.17)">
    <path fill="white" d="M22.957 7.21c-.004-3.064-2.391-5.576-5.191-6.482-3.478-1.125-8.064-.962-11.384.604C2.357 3.231 1.093 7.391 1.046 11.54c-.039 3.411.302 12.396 5.369 12.46 3.765.047 4.326-4.804 6.068-7.141 1.24-1.662 2.836-2.132 4.801-2.618 3.376-.836 5.678-3.501 5.673-7.031Z"/>
  </g>
  <text x="600" y="310" font-family="system-ui, sans-serif" font-size="48" font-weight="bold" fill="white" text-anchor="middle">Patreon Earnings</text>
  <text x="600" y="370" font-family="system-ui, sans-serif" font-size="48" font-weight="bold" fill="white" text-anchor="middle">Calculator</text>
  <text x="600" y="440" font-family="system-ui, sans-serif" font-size="28" fill="#fae8ff" text-anchor="middle">Estimate your Patreon membership income</text>
  <text x="600" y="550" font-family="system-ui, sans-serif" font-size="24" fill="#f0abfc" text-anchor="middle">calcfalcon.com</text>
</svg>