<svg xmlns="http://www.w3.org/2000/svg" width="1200" height="630" viewBox="0 0 1200 630">
  <rect width="1200" height="630" fill="#0891b2"/>
  <defs>
    <linearGradient id="topBar" x1="0" y1="0" x2="1200" y2="0" gradientUnits="userSpaceOnUse">
      <stop offset="0%" stop-color="#06b6d4"/>
      <stop offset="50%" stop-color="#a855f7"/>
      <stop offset="100%" stop-color="#ec4899"/>
    </linearGradient>
  </defs>
  <rect width="1200" height="4" fill="url(#topBar)"/>
  <g transform="translate(550, 120) scale(4.17)">
    <path d="M19 3h-1V1h-2v2H8V1H6v2H5c-1.1 0-2 .9-2 2v14c0 1.1.9 2 2 2h14c1.1 0 2-.9 2-2V5c0-1.1-.9-2-2-2zm0 16H5V8h14v11zM9 10H7v2h2v-2zm4 0h-2v2h2v-2zm4 0h-2v2h2v-2z" fill="white"/>
  </g>
  <text x="600" y="310" font-family="system-ui, sans-serif" font-size="48" font-weight="bold" fill="white" text-anchor="middle">Quarterly Tax Estimator</text>
  <text x="600" y="370" font-family="system-ui, sans-serif" font-size="48" font-weight="bold" fill="white" text-anchor="middle">Calculator</text>
  <text x="600" y="440" font-family="system-ui, sans-serif" font-size="28" fill="#cffafe" text-anchor="middle">Estimate your quarterly self-employment tax payments</text>
  <text x="600" y="550" font-family="system-ui, sans-serif" font-size="24" fill="#a5f3fc" text-anchor="middle">calcfalcon.com</text>
</svg>