<svg xmlns="http://www.w3.org/2000/svg" width="1200" height="630" viewBox="0 0 1200 630">
  <rect width="1200" height="630" fill="#0891b2"/>
  <defs>
    <linearGradient id="topBar" x1="0" y1="0" x2="1200" y2="0" gradientUnits="userSpaceOnUse">
      <stop offset="0%" stop-color="#06b6d4"/>
      <stop offset="50%" stop-color="#a855f7"/>
      <stop offset="100%" stop-color="#ec4899"/>
    </linearGradient>
  </defs>
  <rect width="1200" height="4" fill="url(#topBar)"/>
  <g transform="translate(550, 120) scale(4.17)">
    <path d="M14 2H6c-1.1 0-2 .9-2 2v16c0 1.1.9 2 2 2h12c1.1 0 2-.9 2-2V8l-6-6zm-1 9h-2v2h-2v-2H7v-2h2V7h2v2h2v2zm-1-7V3.5L16.5 8H12z" fill="white"/>
  </g>
  <text x="600" y="310" font-family="system-ui, sans-serif" font-size="48" font-weight="bold" fill="white" text-anchor="middle">Self-Employment Tax</text>
  <text x="600" y="370" font-family="system-ui, sans-serif" font-size="48" font-weight="bold" fill="white" text-anchor="middle">Calculator</text>
  <text x="600" y="440" font-family="system-ui, sans-serif" font-size="28" fill="#cffafe" text-anchor="middle">Calculate Social Security, Medicare, and Schedule SE taxes</text>
  <text x="600" y="550" font-family="system-ui, sans-serif" font-size="24" fill="#a5f3fc" text-anchor="middle">calcfalcon.com</text>
</svg>