<svg width="1200" height="630" xmlns="http://www.w3.org/2000/svg">
  <defs>
    <linearGradient id="brand" x1="0" y1="0" x2="1" y2="0">
      <stop offset="0%" stop-color="#06b6d4"/>
      <stop offset="50%" stop-color="#a855f7"/>
      <stop offset="100%" stop-color="#ec4899"/>
    </linearGradient>
  </defs>
  <rect width="1200" height="630" fill="#7c3aed"/>
  <rect width="1200" height="4" y="0" fill="url(#brand)"/>
  <g transform="translate(550, 120) scale(4.17)">
    <path fill="white" d="M12 2C6.48 2 2 6.48 2 12s4.48 10 10 10 10-4.48 10-10S17.52 2 12 2zm0 18c-4.42 0-8-3.58-8-8s3.58-8 8-8 8 3.58 8 8-3.58 8-8 8zm0-14c-3.31 0-6 2.69-6 6s2.69 6 6 6 6-2.69 6-6-2.69-6-6-6zm0 10c-2.21 0-4-1.79-4-4s1.79-4 4-4 4 1.79 4 4-1.79 4-4 4zm0-6c-1.1 0-2 .9-2 2s.9 2 2 2 2-.9 2-2-.9-2-2-2z"/>
  </g>
  <text x="600" y="310" font-family="system-ui, sans-serif" font-size="48" font-weight="bold" fill="white" text-anchor="middle">Side Hustle Time to Goal</text>
  <text x="600" y="370" font-family="system-ui, sans-serif" font-size="48" font-weight="bold" fill="white" text-anchor="middle">Calculator</text>
  <text x="600" y="440" font-family="system-ui, sans-serif" font-size="28" fill="#ede9fe" text-anchor="middle">Plan your path to financial freedom</text>
  <text x="600" y="550" font-family="system-ui, sans-serif" font-size="24" fill="#c4b5fd" text-anchor="middle">calcfalcon.com</text>
</svg>