<svg width="1200" height="630" xmlns="http://www.w3.org/2000/svg">
  <defs>
    <linearGradient id="brand" x1="0" y1="0" x2="1" y2="0">
      <stop offset="0%" stop-color="#06b6d4"/>
      <stop offset="50%" stop-color="#a855f7"/>
      <stop offset="100%" stop-color="#ec4899"/>
    </linearGradient>
  </defs>
  <rect width="1200" height="630" fill="#d97706"/>
  <rect width="1200" height="4" y="0" fill="url(#brand)"/>
  <g transform="translate(550, 120) scale(4.17)">
    <path fill="white" d="M19 3H5c-1.1 0-2 .9-2 2v14c0 1.1.9 2 2 2h14c1.1 0 2-.9 2-2V5c0-1.1-.9-2-2-2zm-9 14l-5-5 1.41-1.41L10 14.17l7.59-7.59L19 8l-9 9z"/>
  </g>
  <text x="600" y="310" font-family="system-ui, sans-serif" font-size="48" font-weight="bold" fill="white" text-anchor="middle">Subscription Audit</text>
  <text x="600" y="370" font-family="system-ui, sans-serif" font-size="48" font-weight="bold" fill="white" text-anchor="middle">Calculator</text>
  <text x="600" y="440" font-family="system-ui, sans-serif" font-size="28" fill="#fef3c7" text-anchor="middle">Track and optimize your recurring subscriptions</text>
  <text x="600" y="550" font-family="system-ui, sans-serif" font-size="24" fill="#fcd34d" text-anchor="middle">calcfalcon.com</text>
</svg>