<svg width="1200" height="630" xmlns="http://www.w3.org/2000/svg">
  <defs>
    <linearGradient id="brand" x1="0" y1="0" x2="1" y2="0">
      <stop offset="0%" stop-color="#06b6d4"/>
      <stop offset="50%" stop-color="#a855f7"/>
      <stop offset="100%" stop-color="#ec4899"/>
    </linearGradient>
  </defs>
  <rect width="1200" height="630" fill="#7c3aed"/>
  <rect width="1200" height="4" y="0" fill="url(#brand)"/>
  <g transform="translate(540, 100) scale(5)">
    <path fill="white" d="M6 2C5.45 2 5 2.45 5 3v16c0 .55.45 1 1 1h2V3H6zm4 0v17h2V3c0-.55-.45-1-1-1h-1zm4 0c-.55 0-1 .45-1 1v17h2V2h-1zm4 0v18h2V3c0-.55-.45-1-1-1h-1z"/>
  </g>
  <text x="600" y="310" font-family="system-ui, sans-serif" font-size="48" font-weight="bold" fill="white" text-anchor="middle">Tutoring Income</text>
  <text x="600" y="370" font-family="system-ui, sans-serif" font-size="48" font-weight="bold" fill="white" text-anchor="middle">Calculator</text>
  <text x="600" y="440" font-family="system-ui, sans-serif" font-size="28" fill="#ede9fe" text-anchor="middle">Calculate private and platform earnings</text>
  <text x="600" y="550" font-family="system-ui, sans-serif" font-size="24" fill="#c4b5fd" text-anchor="middle">calcfalcon.com</text>
</svg>